<svg width="16" height="16" viewBox="0 0 16 16" fill="none" xmlns="http://www.w3.org/2000/svg">
<path d="M8.43072 1.18378C8.15848 1.05398 7.8422 1.05398 7.56997 1.18378C7.33462 1.29599 7.20487 1.49081 7.13943 1.59769C7.07178 1.70818 7.00234 1.84894 6.93466 1.98613L5.4975 4.89765L2.2828 5.36753C2.13147 5.38961 1.9762 5.41228 1.85026 5.44256C1.72842 5.47186 1.50314 5.53523 1.32387 5.72446C1.11647 5.94337 1.01894 6.24418 1.05842 6.54313C1.09255 6.80155 1.23778 6.98505 1.31924 7.08027C1.40346 7.1787 1.51589 7.28816 1.62546 7.39485L3.95066 9.65958L3.40202 12.8584C3.37612 13.0093 3.34955 13.164 3.33932 13.2932C3.32943 13.4181 3.31986 13.6521 3.44433 13.8812C3.5883 14.1463 3.84422 14.3322 4.1408 14.3871C4.3972 14.4347 4.61672 14.3533 4.73248 14.3052C4.85218 14.2556 4.99113 14.1825 5.12657 14.1112L8.00034 12.5999L10.8741 14.1112C11.0096 14.1825 11.1485 14.2556 11.2682 14.3052C11.384 14.3533 11.6035 14.4347 11.8599 14.3871C12.1565 14.3322 12.4124 14.1463 12.5564 13.8812C12.6808 13.6521 12.6713 13.4181 12.6614 13.2932C12.6511 13.164 12.6246 13.0093 12.5987 12.8585L12.05 9.65958L14.3752 7.39482C14.4848 7.28815 14.5972 7.17869 14.6814 7.08027C14.7629 6.98505 14.9081 6.80155 14.9423 6.54313C14.9817 6.24418 14.8842 5.94337 14.6768 5.72446C14.4975 5.53523 14.2723 5.47186 14.1504 5.44256C14.0245 5.41228 13.8692 5.38961 13.7179 5.36752L10.5032 4.89765L9.06605 1.98618C8.99836 1.84898 8.92891 1.70819 8.86125 1.59769C8.79582 1.49081 8.66606 1.29599 8.43072 1.18378Z" fill="#FFBE4C"/>
</svg>
